<svg xmlns="http://www.w3.org/2000/svg" xmlns:xlink="http://www.w3.org/1999/xlink" width="256" zoomAndPan="magnify" viewBox="0 0 192 191.999996" height="256" preserveAspectRatio="xMidYMid meet" version="1.0"><defs><clipPath id="814a4f6ec2"><path d="M 0.679688 0 L 192 0 L 192 191.542969 L 0.679688 191.542969 Z M 0.679688 0 " clip-rule="nonzero"/></clipPath></defs><g clip-path="url(#814a4f6ec2)"><path fill="#242938" d="M 45.597656 -0.00390625 L 147.414062 -0.00390625 C 148.886719 -0.00390625 150.351562 0.0703125 151.816406 0.214844 C 153.28125 0.359375 154.734375 0.574219 156.175781 0.859375 C 157.621094 1.148438 159.046875 1.503906 160.453125 1.929688 C 161.859375 2.355469 163.246094 2.851562 164.605469 3.414062 C 165.964844 3.976562 167.292969 4.605469 168.589844 5.296875 C 169.886719 5.992188 171.144531 6.746094 172.371094 7.5625 C 173.59375 8.378906 174.773438 9.253906 175.910156 10.1875 C 177.046875 11.121094 178.136719 12.105469 179.175781 13.144531 C 180.21875 14.1875 181.203125 15.273438 182.136719 16.410156 C 183.070312 17.546875 183.945312 18.726562 184.761719 19.949219 C 185.582031 21.171875 186.335938 22.429688 187.027344 23.726562 C 187.722656 25.023438 188.351562 26.351562 188.914062 27.710938 C 189.476562 29.070312 189.972656 30.453125 190.398438 31.859375 C 190.824219 33.265625 191.183594 34.691406 191.46875 36.132812 C 191.757812 37.574219 191.972656 39.027344 192.117188 40.492188 C 192.261719 41.953125 192.332031 43.421875 192.332031 44.890625 L 192.332031 146.648438 C 192.332031 148.121094 192.261719 149.585938 192.117188 151.050781 C 191.972656 152.511719 191.757812 153.964844 191.46875 155.40625 C 191.183594 156.847656 190.824219 158.273438 190.398438 159.679688 C 189.972656 161.085938 189.476562 162.46875 188.914062 163.828125 C 188.351562 165.1875 187.722656 166.515625 187.027344 167.8125 C 186.335938 169.109375 185.582031 170.367188 184.761719 171.589844 C 183.945312 172.8125 183.070312 173.992188 182.136719 175.128906 C 181.203125 176.265625 180.21875 177.355469 179.175781 178.394531 C 178.136719 179.433594 177.046875 180.417969 175.910156 181.351562 C 174.773438 182.285156 173.59375 183.160156 172.371094 183.976562 C 171.148438 184.792969 169.886719 185.546875 168.589844 186.242188 C 167.292969 186.933594 165.964844 187.5625 164.605469 188.125 C 163.246094 188.6875 161.859375 189.183594 160.453125 189.609375 C 159.046875 190.035156 157.621094 190.394531 156.175781 190.679688 C 154.734375 190.964844 153.28125 191.183594 151.816406 191.324219 C 150.351562 191.46875 148.886719 191.542969 147.414062 191.542969 L 45.597656 191.542969 C 44.125 191.542969 42.660156 191.46875 41.195312 191.324219 C 39.730469 191.183594 38.277344 190.964844 36.835938 190.679688 C 35.390625 190.394531 33.964844 190.035156 32.558594 189.609375 C 31.148438 189.183594 29.765625 188.6875 28.40625 188.125 C 27.046875 187.5625 25.71875 186.933594 24.421875 186.242188 C 23.125 185.546875 21.863281 184.792969 20.640625 183.976562 C 19.417969 183.160156 18.238281 182.285156 17.101562 181.351562 C 15.964844 180.417969 14.875 179.433594 13.835938 178.394531 C 12.792969 177.355469 11.808594 176.265625 10.875 175.128906 C 9.941406 173.992188 9.066406 172.8125 8.25 171.589844 C 7.429688 170.367188 6.675781 169.109375 5.980469 167.8125 C 5.289062 166.515625 4.660156 165.1875 4.097656 163.828125 C 3.535156 162.46875 3.039062 161.085938 2.613281 159.679688 C 2.1875 158.273438 1.828125 156.847656 1.542969 155.40625 C 1.253906 153.964844 1.039062 152.511719 0.894531 151.050781 C 0.75 149.585938 0.679688 148.121094 0.679688 146.648438 L 0.679688 44.890625 C 0.679688 43.421875 0.75 41.953125 0.894531 40.492188 C 1.039062 39.027344 1.253906 37.574219 1.542969 36.132812 C 1.828125 34.691406 2.1875 33.265625 2.613281 31.859375 C 3.039062 30.453125 3.535156 29.070312 4.097656 27.710938 C 4.660156 26.351562 5.289062 25.023438 5.980469 23.726562 C 6.675781 22.429688 7.429688 21.171875 8.25 19.949219 C 9.066406 18.726562 9.941406 17.546875 10.875 16.410156 C 11.808594 15.273438 12.792969 14.1875 13.835938 13.144531 C 14.875 12.105469 15.964844 11.121094 17.101562 10.1875 C 18.238281 9.253906 19.417969 8.378906 20.640625 7.5625 C 21.863281 6.746094 23.125 5.992188 24.421875 5.296875 C 25.71875 4.605469 27.046875 3.976562 28.40625 3.414062 C 29.765625 2.851562 31.148438 2.355469 32.558594 1.929688 C 33.964844 1.503906 35.390625 1.148438 36.835938 0.859375 C 38.277344 0.574219 39.730469 0.359375 41.195312 0.214844 C 42.660156 0.0703125 44.125 -0.00390625 45.597656 -0.00390625 Z M 45.597656 -0.00390625 " fill-opacity="1" fill-rule="nonzero"/></g><path fill="#ffffff" d="M 91.601562 20.988281 C 91.28125 21.015625 90.257812 21.121094 89.332031 21.191406 C 68.066406 23.109375 48.148438 34.578125 35.53125 52.203125 C 28.503906 62.003906 24.011719 73.121094 22.3125 84.898438 C 21.714844 89.007812 21.640625 90.222656 21.640625 95.796875 C 21.640625 101.367188 21.714844 102.582031 22.3125 106.691406 C 26.382812 134.792969 46.390625 158.402344 73.527344 167.152344 C 78.386719 168.714844 83.507812 169.785156 89.332031 170.425781 C 91.601562 170.675781 101.410156 170.675781 103.679688 170.425781 C 113.734375 169.316406 122.25 166.828125 130.652344 162.542969 C 131.941406 161.886719 132.191406 161.710938 132.011719 161.5625 C 131.898438 161.476562 126.40625 154.117188 119.820312 145.222656 L 107.847656 129.058594 L 92.847656 106.867188 C 84.589844 94.667969 77.800781 84.691406 77.742188 84.691406 C 77.683594 84.679688 77.625 94.539062 77.59375 106.578125 C 77.550781 127.65625 77.539062 128.503906 77.273438 129 C 76.894531 129.71875 76.601562 130.011719 75.984375 130.332031 C 75.515625 130.566406 75.105469 130.609375 72.898438 130.609375 L 70.363281 130.609375 L 69.691406 130.1875 C 69.253906 129.910156 68.929688 129.542969 68.710938 129.117188 L 68.402344 128.460938 L 68.433594 99.128906 L 68.476562 69.785156 L 68.929688 69.214844 C 69.164062 68.910156 69.664062 68.515625 70.015625 68.324219 C 70.613281 68.03125 70.847656 68.003906 73.378906 68.003906 C 76.367188 68.003906 76.863281 68.121094 77.640625 68.96875 C 77.859375 69.203125 85.980469 81.429688 95.699219 96.160156 C 105.417969 110.890625 118.710938 131.003906 125.238281 140.878906 L 137.09375 158.828125 L 137.691406 158.433594 C 143.003906 154.980469 148.625 150.066406 153.074219 144.945312 C 162.546875 134.078125 168.648438 120.824219 170.699219 106.691406 C 171.296875 102.582031 171.371094 101.367188 171.371094 95.796875 C 171.371094 90.222656 171.296875 89.007812 170.699219 84.898438 C 166.628906 56.796875 146.621094 33.1875 119.484375 24.441406 C 114.699219 22.890625 109.605469 21.820312 103.898438 21.179688 C 102.492188 21.03125 92.816406 20.871094 91.601562 20.988281 Z M 122.25 66.246094 C 122.953125 66.597656 123.523438 67.269531 123.730469 67.972656 C 123.847656 68.351562 123.875 76.488281 123.847656 94.816406 L 123.800781 121.117188 L 119.164062 114.007812 L 114.507812 106.898438 L 114.507812 87.78125 C 114.507812 75.417969 114.566406 68.46875 114.65625 68.132812 C 114.890625 67.316406 115.402344 66.671875 116.105469 66.289062 C 116.703125 65.984375 116.921875 65.953125 119.222656 65.953125 C 121.386719 65.953125 121.769531 65.984375 122.25 66.246094 Z M 122.25 66.246094 " fill-opacity="1" fill-rule="nonzero"/></svg>