<svg xmlns="http://www.w3.org/2000/svg" xmlns:xlink="http://www.w3.org/1999/xlink" width="256" zoomAndPan="magnify" viewBox="0 0 192 191.999996" height="256" preserveAspectRatio="xMidYMid meet" version="1.0"><defs><clipPath id="ade8030d11"><path d="M 0 0.226562 L 191.65625 0.226562 L 191.65625 191.773438 L 0 191.773438 Z M 0 0.226562 " clip-rule="nonzero"/></clipPath><clipPath id="a194d24357"><path d="M 0 30 L 191.65625 30 L 191.65625 163 L 0 163 Z M 0 30 " clip-rule="nonzero"/></clipPath><clipPath id="ab584c358d"><path d="M 13 0.226562 L 179 0.226562 L 179 191.773438 L 13 191.773438 Z M 13 0.226562 " clip-rule="nonzero"/></clipPath></defs><g clip-path="url(#ade8030d11)"><path fill="#242938" d="M 44.917969 0.226562 L 146.734375 0.226562 C 148.207031 0.226562 149.675781 0.300781 151.136719 0.445312 C 152.601562 0.585938 154.054688 0.804688 155.5 1.089844 C 156.941406 1.378906 158.367188 1.734375 159.773438 2.160156 C 161.183594 2.585938 162.566406 3.082031 163.925781 3.644531 C 165.285156 4.207031 166.613281 4.835938 167.910156 5.527344 C 169.207031 6.222656 170.46875 6.976562 171.691406 7.792969 C 172.914062 8.609375 174.09375 9.484375 175.230469 10.417969 C 176.371094 11.351562 177.457031 12.335938 178.5 13.375 C 179.539062 14.417969 180.523438 15.503906 181.457031 16.640625 C 182.390625 17.777344 183.265625 18.957031 184.085938 20.179688 C 184.902344 21.402344 185.65625 22.660156 186.351562 23.957031 C 187.042969 25.253906 187.671875 26.582031 188.234375 27.941406 C 188.796875 29.300781 189.292969 30.683594 189.71875 32.089844 C 190.148438 33.496094 190.503906 34.921875 190.792969 36.363281 C 191.078125 37.804688 191.292969 39.257812 191.4375 40.71875 C 191.582031 42.183594 191.65625 43.652344 191.65625 45.121094 L 191.65625 146.878906 C 191.65625 148.347656 191.582031 149.816406 191.4375 151.28125 C 191.292969 152.742188 191.078125 154.195312 190.792969 155.636719 C 190.503906 157.078125 190.148438 158.503906 189.71875 159.910156 C 189.292969 161.316406 188.796875 162.699219 188.234375 164.058594 C 187.671875 165.417969 187.042969 166.746094 186.351562 168.042969 C 185.65625 169.339844 184.902344 170.597656 184.085938 171.820312 C 183.265625 173.042969 182.390625 174.222656 181.457031 175.359375 C 180.523438 176.496094 179.539062 177.582031 178.5 178.625 C 177.457031 179.664062 176.371094 180.648438 175.230469 181.582031 C 174.09375 182.515625 172.914062 183.390625 171.691406 184.207031 C 170.46875 185.023438 169.207031 185.777344 167.910156 186.472656 C 166.613281 187.164062 165.285156 187.792969 163.925781 188.355469 C 162.566406 188.917969 161.183594 189.414062 159.773438 189.839844 C 158.367188 190.265625 156.941406 190.621094 155.5 190.910156 C 154.054688 191.195312 152.601562 191.414062 151.136719 191.554688 C 149.675781 191.699219 148.207031 191.773438 146.734375 191.773438 L 44.917969 191.773438 C 43.449219 191.773438 41.980469 191.699219 40.515625 191.554688 C 39.050781 191.414062 37.597656 191.195312 36.15625 190.910156 C 34.714844 190.621094 33.289062 190.265625 31.878906 189.839844 C 30.472656 189.414062 29.089844 188.917969 27.730469 188.355469 C 26.371094 187.792969 25.042969 187.164062 23.746094 186.472656 C 22.445312 185.777344 21.1875 185.023438 19.964844 184.207031 C 18.738281 183.390625 17.558594 182.515625 16.421875 181.582031 C 15.285156 180.648438 14.195312 179.664062 13.15625 178.625 C 12.117188 177.582031 11.128906 176.496094 10.195312 175.359375 C 9.261719 174.222656 8.386719 173.042969 7.570312 171.820312 C 6.753906 170.597656 5.996094 169.339844 5.304688 168.042969 C 4.609375 166.746094 3.980469 165.417969 3.417969 164.058594 C 2.855469 162.699219 2.359375 161.316406 1.933594 159.910156 C 1.507812 158.503906 1.148438 157.078125 0.863281 155.636719 C 0.574219 154.195312 0.359375 152.742188 0.214844 151.28125 C 0.0703125 149.816406 0 148.347656 0 146.878906 L 0 45.121094 C 0 43.652344 0.0703125 42.183594 0.214844 40.71875 C 0.359375 39.257812 0.574219 37.804688 0.863281 36.363281 C 1.148438 34.921875 1.507812 33.496094 1.933594 32.089844 C 2.359375 30.683594 2.855469 29.300781 3.417969 27.941406 C 3.980469 26.582031 4.609375 25.253906 5.304688 23.957031 C 5.996094 22.660156 6.753906 21.402344 7.570312 20.179688 C 8.386719 18.957031 9.261719 17.777344 10.195312 16.640625 C 11.128906 15.503906 12.117188 14.417969 13.15625 13.375 C 14.195312 12.335938 15.285156 11.351562 16.421875 10.417969 C 17.558594 9.484375 18.738281 8.609375 19.964844 7.792969 C 21.1875 6.976562 22.445312 6.222656 23.746094 5.527344 C 25.042969 4.835938 26.371094 4.207031 27.730469 3.644531 C 29.089844 3.082031 30.472656 2.585938 31.878906 2.160156 C 33.289062 1.734375 34.714844 1.378906 36.15625 1.089844 C 37.597656 0.804688 39.050781 0.585938 40.515625 0.445312 C 41.980469 0.300781 43.449219 0.226562 44.917969 0.226562 Z M 44.917969 0.226562 " fill-opacity="1" fill-rule="nonzero"/></g><path fill="#00d8ff" d="M 95.828125 110.179688 C 103.542969 110.179688 109.796875 103.929688 109.796875 96.222656 C 109.796875 88.511719 103.542969 82.261719 95.828125 82.261719 C 88.113281 82.261719 81.859375 88.511719 81.859375 96.222656 C 81.859375 103.929688 88.113281 110.179688 95.828125 110.179688 Z M 95.828125 110.179688 " fill-opacity="1" fill-rule="nonzero"/><g clip-path="url(#a194d24357)"><path stroke-linecap="butt" transform="matrix(0.748651, 0, 0, 0.748223, 0.000002, 0.227517)" fill="none" stroke-linejoin="miter" d="M 128.001044 90.363929 C 153.051306 90.363929 176.317108 93.955775 193.864292 99.996133 C 215.001266 107.273797 227.9986 118.30515 227.9986 128.297582 C 227.9986 138.702449 214.223826 150.422935 191.526755 157.945973 C 174.360464 163.631322 151.778183 166.596683 128.001044 166.596683 C 103.623868 166.596683 80.540685 163.814047 63.181339 157.883324 C 41.225184 150.375949 27.99827 138.504062 27.99827 128.297582 C 27.99827 118.388681 40.41122 107.44086 61.250783 100.173637 C 78.86058 94.034086 102.705549 90.363929 127.995826 90.363929 Z M 128.001044 90.363929 " stroke="#00d8ff" stroke-width="8.911" stroke-opacity="1" stroke-miterlimit="4"/></g><g clip-path="url(#ab584c358d)"><path stroke-linecap="butt" transform="matrix(0.748651, 0, 0, 0.748223, 0.000002, 0.227517)" fill="none" stroke-linejoin="miter" d="M 94.983327 109.44039 C 107.495414 87.737914 122.230248 69.37669 136.229384 57.196782 C 153.093048 42.521377 169.142747 36.773379 177.793722 41.764374 C 186.815156 46.964198 190.081447 64.751144 185.260276 88.171233 C 181.613092 105.879869 172.899503 126.924536 161.01876 147.525443 C 148.840608 168.6432 134.898867 187.244577 121.087568 199.31485 C 103.61865 214.585416 86.728898 220.114144 77.884867 215.013513 C 69.301722 210.069505 66.019777 193.843549 70.136556 172.161956 C 73.616774 153.837277 82.346015 131.346474 94.97811 109.44039 Z M 94.983327 109.44039 " stroke="#00d8ff" stroke-width="8.911" stroke-opacity="1" stroke-miterlimit="4"/><path stroke-linecap="butt" transform="matrix(0.748651, 0, 0, 0.748223, 0.000002, 0.227517)" fill="none" stroke-linejoin="miter" d="M 95.014634 147.57765 C 82.460805 125.906498 73.919402 103.963869 70.355701 85.754046 C 66.061519 63.811417 69.093013 47.037288 77.738771 42.03063 C 86.749769 36.815145 103.790835 42.865943 121.671953 58.742111 C 135.196276 70.749736 149.075405 88.802938 160.987454 109.382963 C 173.202131 130.479837 182.359225 151.853408 185.917709 169.843962 C 190.425817 192.606242 186.778632 210.001635 177.939818 215.117928 C 169.367109 220.077599 153.677432 214.825568 136.944212 200.42686 C 122.809415 188.262614 107.683252 169.468072 95.014634 147.57765 Z M 95.014634 147.57765 " stroke="#00d8ff" stroke-width="8.911" stroke-opacity="1" stroke-miterlimit="4"/></g></svg>