<svg xmlns="http://www.w3.org/2000/svg" xmlns:xlink="http://www.w3.org/1999/xlink" width="256" zoomAndPan="magnify" viewBox="0 0 192 191.999996" height="256" preserveAspectRatio="xMidYMid meet" version="1.0"><defs><clipPath id="d3063cad0e"><path d="M 0 0.226562 L 191.65625 0.226562 L 191.65625 191.773438 L 0 191.773438 Z M 0 0.226562 " clip-rule="nonzero"/></clipPath><clipPath id="0213c9778c"><path d="M 28 55 L 164 55 L 164 137 L 28 137 Z M 28 55 " clip-rule="nonzero"/></clipPath><clipPath id="6de823632d"><path d="M 62.136719 82.53125 C 66.628906 64.574219 77.859375 55.597656 95.828125 55.597656 C 122.777344 55.597656 126.148438 75.796875 139.625 79.164062 C 148.609375 81.410156 156.46875 78.042969 163.207031 69.0625 C 158.714844 87.019531 147.484375 96 129.515625 96 C 102.566406 96 99.195312 75.796875 85.71875 72.429688 C 76.734375 70.1875 68.875 73.550781 62.136719 82.53125 Z M 28.449219 122.9375 C 32.941406 104.980469 44.171875 96 62.136719 96 C 89.089844 96 92.457031 116.203125 105.933594 119.570312 C 114.917969 121.8125 122.777344 118.449219 129.515625 109.46875 C 125.027344 127.425781 113.792969 136.402344 95.828125 136.402344 C 68.875 136.402344 65.507812 116.203125 52.03125 112.835938 C 43.046875 110.589844 35.1875 113.957031 28.449219 122.9375 Z M 28.449219 122.9375 " clip-rule="evenodd"/></clipPath><linearGradient x1="70.838939" gradientTransform="matrix(0.748651, 0, 0, 0.748223, 0.000002, 0.22753)" y1="51.32197" x2="179.461934" gradientUnits="userSpaceOnUse" y2="208.613709" id="46b326b125"><stop stop-opacity="1" stop-color="rgb(19.599915%, 69.398499%, 75.698853%)" offset="0"/><stop stop-opacity="1" stop-color="rgb(19.599915%, 69.398499%, 75.698853%)" offset="0.125"/><stop stop-opacity="1" stop-color="rgb(19.499207%, 69.468689%, 75.665283%)" offset="0.15625"/><stop stop-opacity="1" stop-color="rgb(19.267273%, 69.628906%, 75.588989%)" offset="0.171875"/><stop stop-opacity="1" stop-color="rgb(19.007874%, 69.80896%, 75.50354%)" offset="0.1875"/><stop stop-opacity="1" stop-color="rgb(18.746948%, 69.99054%, 75.418091%)" offset="0.203125"/><stop stop-opacity="1" stop-color="rgb(18.487549%, 70.170593%, 75.331116%)" offset="0.21875"/><stop stop-opacity="1" stop-color="rgb(18.228149%, 70.352173%, 75.245667%)" offset="0.234375"/><stop stop-opacity="1" stop-color="rgb(17.967224%, 70.532227%, 75.160217%)" offset="0.25"/><stop stop-opacity="1" stop-color="rgb(17.707825%, 70.713806%, 75.073242%)" offset="0.265625"/><stop stop-opacity="1" stop-color="rgb(17.446899%, 70.89386%, 74.987793%)" offset="0.28125"/><stop stop-opacity="1" stop-color="rgb(17.1875%, 71.075439%, 74.902344%)" offset="0.296875"/><stop stop-opacity="1" stop-color="rgb(16.926575%, 71.255493%, 74.815369%)" offset="0.3125"/><stop stop-opacity="1" stop-color="rgb(16.667175%, 71.437073%, 74.729919%)" offset="0.328125"/><stop stop-opacity="1" stop-color="rgb(16.40625%, 71.617126%, 74.64447%)" offset="0.34375"/><stop stop-opacity="1" stop-color="rgb(16.146851%, 71.79718%, 74.557495%)" offset="0.359375"/><stop stop-opacity="1" stop-color="rgb(15.885925%, 71.97876%, 74.472046%)" offset="0.375"/><stop stop-opacity="1" stop-color="rgb(15.626526%, 72.158813%, 74.386597%)" offset="0.390625"/><stop stop-opacity="1" stop-color="rgb(15.367126%, 72.340393%, 74.299622%)" offset="0.40625"/><stop stop-opacity="1" stop-color="rgb(15.106201%, 72.520447%, 74.214172%)" offset="0.421875"/><stop stop-opacity="1" stop-color="rgb(14.846802%, 72.702026%, 74.128723%)" offset="0.4375"/><stop stop-opacity="1" stop-color="rgb(14.585876%, 72.88208%, 74.041748%)" offset="0.453125"/><stop stop-opacity="1" stop-color="rgb(14.326477%, 73.06366%, 73.956299%)" offset="0.464906"/><stop stop-opacity="1" stop-color="rgb(14.196777%, 73.153687%, 73.913574%)" offset="0.46875"/><stop stop-opacity="1" stop-color="rgb(14.065552%, 73.243713%, 73.87085%)" offset="0.484375"/><stop stop-opacity="1" stop-color="rgb(13.806152%, 73.425293%, 73.783875%)" offset="0.5"/><stop stop-opacity="1" stop-color="rgb(13.545227%, 73.605347%, 73.698425%)" offset="0.515625"/><stop stop-opacity="1" stop-color="rgb(13.285828%, 73.7854%, 73.612976%)" offset="0.53125"/><stop stop-opacity="1" stop-color="rgb(13.024902%, 73.96698%, 73.526001%)" offset="0.535094"/><stop stop-opacity="1" stop-color="rgb(12.895203%, 74.057007%, 73.483276%)" offset="0.546875"/><stop stop-opacity="1" stop-color="rgb(12.765503%, 74.147034%, 73.440552%)" offset="0.5625"/><stop stop-opacity="1" stop-color="rgb(12.506104%, 74.328613%, 73.355103%)" offset="0.578125"/><stop stop-opacity="1" stop-color="rgb(12.245178%, 74.508667%, 73.268127%)" offset="0.59375"/><stop stop-opacity="1" stop-color="rgb(11.985779%, 74.690247%, 73.182678%)" offset="0.609375"/><stop stop-opacity="1" stop-color="rgb(11.724854%, 74.8703%, 73.097229%)" offset="0.625"/><stop stop-opacity="1" stop-color="rgb(11.465454%, 75.05188%, 73.010254%)" offset="0.640625"/><stop stop-opacity="1" stop-color="rgb(11.204529%, 75.231934%, 72.924805%)" offset="0.65625"/><stop stop-opacity="1" stop-color="rgb(10.945129%, 75.411987%, 72.839355%)" offset="0.671875"/><stop stop-opacity="1" stop-color="rgb(10.684204%, 75.593567%, 72.75238%)" offset="0.6875"/><stop stop-opacity="1" stop-color="rgb(10.424805%, 75.773621%, 72.666931%)" offset="0.703125"/><stop stop-opacity="1" stop-color="rgb(10.163879%, 75.9552%, 72.581482%)" offset="0.71875"/><stop stop-opacity="1" stop-color="rgb(9.90448%, 76.135254%, 72.494507%)" offset="0.734375"/><stop stop-opacity="1" stop-color="rgb(9.645081%, 76.316833%, 72.409058%)" offset="0.75"/><stop stop-opacity="1" stop-color="rgb(9.384155%, 76.496887%, 72.323608%)" offset="0.765625"/><stop stop-opacity="1" stop-color="rgb(9.124756%, 76.678467%, 72.236633%)" offset="0.78125"/><stop stop-opacity="1" stop-color="rgb(8.863831%, 76.858521%, 72.151184%)" offset="0.796875"/><stop stop-opacity="1" stop-color="rgb(8.604431%, 77.0401%, 72.065735%)" offset="0.8125"/><stop stop-opacity="1" stop-color="rgb(8.343506%, 77.220154%, 71.97876%)" offset="0.828125"/><stop stop-opacity="1" stop-color="rgb(8.084106%, 77.400208%, 71.893311%)" offset="0.84375"/><stop stop-opacity="1" stop-color="rgb(7.876587%, 77.545166%, 71.824646%)" offset="0.875"/><stop stop-opacity="1" stop-color="rgb(7.798767%, 77.598572%, 71.798706%)" offset="1"/></linearGradient></defs><g clip-path="url(#d3063cad0e)"><path fill="#242938" d="M 44.917969 0.226562 L 146.734375 0.226562 C 148.207031 0.226562 149.675781 0.300781 151.136719 0.445312 C 152.601562 0.585938 154.054688 0.804688 155.5 1.089844 C 156.941406 1.378906 158.367188 1.734375 159.773438 2.160156 C 161.183594 2.585938 162.566406 3.082031 163.925781 3.644531 C 165.285156 4.207031 166.613281 4.835938 167.910156 5.527344 C 169.207031 6.222656 170.46875 6.976562 171.691406 7.792969 C 172.914062 8.609375 174.09375 9.484375 175.230469 10.417969 C 176.371094 11.351562 177.457031 12.335938 178.5 13.375 C 179.539062 14.417969 180.523438 15.503906 181.457031 16.640625 C 182.390625 17.777344 183.265625 18.957031 184.085938 20.179688 C 184.902344 21.402344 185.65625 22.660156 186.351562 23.957031 C 187.042969 25.253906 187.671875 26.582031 188.234375 27.941406 C 188.796875 29.300781 189.292969 30.683594 189.71875 32.089844 C 190.148438 33.496094 190.503906 34.921875 190.792969 36.363281 C 191.078125 37.804688 191.292969 39.257812 191.4375 40.71875 C 191.582031 42.183594 191.65625 43.652344 191.65625 45.121094 L 191.65625 146.878906 C 191.65625 148.347656 191.582031 149.816406 191.4375 151.28125 C 191.292969 152.742188 191.078125 154.195312 190.792969 155.636719 C 190.503906 157.078125 190.148438 158.503906 189.71875 159.910156 C 189.292969 161.316406 188.796875 162.699219 188.234375 164.058594 C 187.671875 165.417969 187.042969 166.746094 186.351562 168.042969 C 185.65625 169.339844 184.902344 170.597656 184.085938 171.820312 C 183.265625 173.042969 182.390625 174.222656 181.457031 175.359375 C 180.523438 176.496094 179.539062 177.582031 178.5 178.625 C 177.457031 179.664062 176.371094 180.648438 175.230469 181.582031 C 174.09375 182.515625 172.914062 183.390625 171.691406 184.207031 C 170.46875 185.023438 169.207031 185.777344 167.910156 186.472656 C 166.613281 187.164062 165.285156 187.792969 163.925781 188.355469 C 162.566406 188.917969 161.183594 189.414062 159.773438 189.839844 C 158.367188 190.265625 156.941406 190.621094 155.5 190.910156 C 154.054688 191.195312 152.601562 191.414062 151.136719 191.554688 C 149.675781 191.699219 148.207031 191.773438 146.734375 191.773438 L 44.917969 191.773438 C 43.449219 191.773438 41.980469 191.699219 40.515625 191.554688 C 39.050781 191.414062 37.597656 191.195312 36.15625 190.910156 C 34.714844 190.621094 33.289062 190.265625 31.878906 189.839844 C 30.472656 189.414062 29.089844 188.917969 27.730469 188.355469 C 26.371094 187.792969 25.042969 187.164062 23.746094 186.472656 C 22.445312 185.777344 21.1875 185.023438 19.964844 184.207031 C 18.738281 183.390625 17.558594 182.515625 16.421875 181.582031 C 15.285156 180.648438 14.195312 179.664062 13.15625 178.625 C 12.117188 177.582031 11.128906 176.496094 10.195312 175.359375 C 9.261719 174.222656 8.386719 173.042969 7.570312 171.820312 C 6.753906 170.597656 5.996094 169.339844 5.304688 168.042969 C 4.609375 166.746094 3.980469 165.417969 3.417969 164.058594 C 2.855469 162.699219 2.359375 161.316406 1.933594 159.910156 C 1.507812 158.503906 1.148438 157.078125 0.863281 155.636719 C 0.574219 154.195312 0.359375 152.742188 0.214844 151.28125 C 0.0703125 149.816406 0 148.347656 0 146.878906 L 0 45.121094 C 0 43.652344 0.0703125 42.183594 0.214844 40.71875 C 0.359375 39.257812 0.574219 37.804688 0.863281 36.363281 C 1.148438 34.921875 1.507812 33.496094 1.933594 32.089844 C 2.359375 30.683594 2.855469 29.300781 3.417969 27.941406 C 3.980469 26.582031 4.609375 25.253906 5.304688 23.957031 C 5.996094 22.660156 6.753906 21.402344 7.570312 20.179688 C 8.386719 18.957031 9.261719 17.777344 10.195312 16.640625 C 11.128906 15.503906 12.117188 14.417969 13.15625 13.375 C 14.195312 12.335938 15.285156 11.351562 16.421875 10.417969 C 17.558594 9.484375 18.738281 8.609375 19.964844 7.792969 C 21.1875 6.976562 22.445312 6.222656 23.746094 5.527344 C 25.042969 4.835938 26.371094 4.207031 27.730469 3.644531 C 29.089844 3.082031 30.472656 2.585938 31.878906 2.160156 C 33.289062 1.734375 34.714844 1.378906 36.15625 1.089844 C 37.597656 0.804688 39.050781 0.585938 40.515625 0.445312 C 41.980469 0.300781 43.449219 0.226562 44.917969 0.226562 Z M 44.917969 0.226562 " fill-opacity="1" fill-rule="nonzero"/></g><g clip-path="url(#0213c9778c)"><g clip-path="url(#6de823632d)"><path fill="url(#46b326b125)" d="M 28.449219 55.597656 L 28.449219 136.402344 L 163.207031 136.402344 L 163.207031 55.597656 Z M 28.449219 55.597656 " fill-rule="nonzero"/></g></g></svg>