<svg xmlns="http://www.w3.org/2000/svg" xmlns:xlink="http://www.w3.org/1999/xlink" width="256" zoomAndPan="magnify" viewBox="0 0 192 191.999996" height="256" preserveAspectRatio="xMidYMid meet" version="1.0"><path fill="#0277bd" d="M 45 0 L 147 0 C 148.472656 0 149.945312 0.0703125 151.410156 0.214844 C 152.878906 0.359375 154.332031 0.578125 155.777344 0.863281 C 157.222656 1.152344 158.652344 1.511719 160.0625 1.9375 C 161.472656 2.367188 162.859375 2.863281 164.222656 3.425781 C 165.582031 3.988281 166.914062 4.617188 168.210938 5.3125 C 169.511719 6.007812 170.773438 6.765625 172 7.582031 C 173.226562 8.402344 174.410156 9.28125 175.546875 10.214844 C 176.6875 11.148438 177.777344 12.136719 178.820312 13.179688 C 179.863281 14.222656 180.851562 15.3125 181.785156 16.453125 C 182.71875 17.589844 183.597656 18.773438 184.417969 20 C 185.234375 21.226562 185.992188 22.488281 186.6875 23.789062 C 187.382812 25.085938 188.011719 26.417969 188.574219 27.777344 C 189.136719 29.140625 189.632812 30.527344 190.0625 31.9375 C 190.488281 33.347656 190.847656 34.777344 191.136719 36.222656 C 191.421875 37.667969 191.640625 39.121094 191.785156 40.589844 C 191.929688 42.054688 192 43.527344 192 45 L 192 147 C 192 148.472656 191.929688 149.945312 191.785156 151.410156 C 191.640625 152.878906 191.421875 154.332031 191.136719 155.777344 C 190.847656 157.222656 190.488281 158.652344 190.0625 160.0625 C 189.632812 161.472656 189.136719 162.859375 188.574219 164.222656 C 188.011719 165.582031 187.382812 166.914062 186.6875 168.210938 C 185.992188 169.511719 185.234375 170.773438 184.417969 172 C 183.597656 173.226562 182.71875 174.410156 181.785156 175.546875 C 180.851562 176.6875 179.863281 177.777344 178.820312 178.820312 C 177.777344 179.863281 176.6875 180.851562 175.546875 181.785156 C 174.410156 182.71875 173.226562 183.597656 172 184.417969 C 170.773438 185.234375 169.511719 185.992188 168.210938 186.6875 C 166.914062 187.382812 165.582031 188.011719 164.222656 188.574219 C 162.859375 189.136719 161.472656 189.632812 160.0625 190.0625 C 158.652344 190.488281 157.222656 190.847656 155.777344 191.136719 C 154.332031 191.421875 152.878906 191.640625 151.410156 191.785156 C 149.945312 191.929688 148.472656 192 147 192 L 45 192 C 43.527344 192 42.054688 191.929688 40.589844 191.785156 C 39.121094 191.640625 37.667969 191.421875 36.222656 191.136719 C 34.777344 190.847656 33.347656 190.488281 31.9375 190.0625 C 30.527344 189.632812 29.140625 189.136719 27.777344 188.574219 C 26.417969 188.011719 25.085938 187.382812 23.789062 186.6875 C 22.488281 185.992188 21.226562 185.234375 20 184.417969 C 18.773438 183.597656 17.589844 182.71875 16.453125 181.785156 C 15.3125 180.851562 14.222656 179.863281 13.179688 178.820312 C 12.136719 177.777344 11.148438 176.6875 10.214844 175.546875 C 9.28125 174.410156 8.402344 173.226562 7.582031 172 C 6.765625 170.773438 6.007812 169.511719 5.3125 168.210938 C 4.617188 166.914062 3.988281 165.582031 3.425781 164.222656 C 2.863281 162.859375 2.367188 161.472656 1.9375 160.0625 C 1.511719 158.652344 1.152344 157.222656 0.863281 155.777344 C 0.578125 154.332031 0.359375 152.878906 0.214844 151.410156 C 0.0703125 149.945312 0 148.472656 0 147 L 0 45 C 0 43.527344 0.0703125 42.054688 0.214844 40.589844 C 0.359375 39.121094 0.578125 37.667969 0.863281 36.222656 C 1.152344 34.777344 1.511719 33.347656 1.9375 31.9375 C 2.367188 30.527344 2.863281 29.140625 3.425781 27.777344 C 3.988281 26.417969 4.617188 25.085938 5.3125 23.789062 C 6.007812 22.488281 6.765625 21.226562 7.582031 20 C 8.402344 18.773438 9.28125 17.589844 10.214844 16.453125 C 11.148438 15.3125 12.136719 14.222656 13.179688 13.179688 C 14.222656 12.136719 15.3125 11.148438 16.453125 10.214844 C 17.589844 9.28125 18.773438 8.402344 20 7.582031 C 21.226562 6.765625 22.488281 6.007812 23.789062 5.3125 C 25.085938 4.617188 26.417969 3.988281 27.777344 3.425781 C 29.140625 2.863281 30.527344 2.367188 31.9375 1.9375 C 33.347656 1.511719 34.777344 1.152344 36.222656 0.863281 C 37.667969 0.578125 39.121094 0.359375 40.589844 0.214844 C 42.054688 0.0703125 43.527344 0 45 0 Z M 45 0 " fill-opacity="1" fill-rule="nonzero"/><path fill="#ebebeb" d="M 40.316406 76.988281 L 42.460938 100.945312 L 96.070312 100.945312 L 96.070312 76.988281 Z M 40.316406 76.988281 " fill-opacity="1" fill-rule="nonzero"/><path fill="#ebebeb" d="M 96.070312 28.5 L 36 28.5 L 38.175781 52.457031 L 96.070312 52.457031 Z M 96.070312 28.5 " fill-opacity="1" fill-rule="nonzero"/><path fill="#ebebeb" d="M 96.070312 164.128906 L 96.070312 139.207031 L 95.964844 139.234375 L 69.285156 132.03125 L 67.582031 112.921875 L 43.53125 112.921875 L 46.886719 150.539062 L 95.960938 164.160156 Z M 96.070312 164.128906 " fill-opacity="1" fill-rule="nonzero"/><path fill="#ffffff" d="M 125.488281 100.945312 L 122.707031 132.015625 L 95.988281 139.226562 L 95.988281 164.148438 L 145.101562 150.539062 L 145.460938 146.492188 L 151.089844 83.421875 L 151.675781 76.988281 L 156 28.5 L 95.988281 28.5 L 95.988281 52.457031 L 129.746094 52.457031 L 127.566406 76.988281 L 95.988281 76.988281 L 95.988281 100.945312 Z M 125.488281 100.945312 " fill-opacity="1" fill-rule="nonzero"/></svg>