<svg xmlns="http://www.w3.org/2000/svg" xmlns:xlink="http://www.w3.org/1999/xlink" width="256" zoomAndPan="magnify" viewBox="0 0 192 191.999996" height="256" preserveAspectRatio="xMidYMid meet" version="1.0"><path fill="#007acc" d="M 45 0 L 147 0 C 148.472656 0 149.945312 0.0703125 151.410156 0.214844 C 152.878906 0.359375 154.332031 0.578125 155.777344 0.863281 C 157.222656 1.152344 158.652344 1.511719 160.0625 1.9375 C 161.472656 2.367188 162.859375 2.863281 164.222656 3.425781 C 165.582031 3.988281 166.914062 4.617188 168.210938 5.3125 C 169.511719 6.007812 170.773438 6.765625 172 7.582031 C 173.226562 8.402344 174.410156 9.28125 175.546875 10.214844 C 176.6875 11.148438 177.777344 12.136719 178.820312 13.179688 C 179.863281 14.222656 180.851562 15.3125 181.785156 16.453125 C 182.71875 17.589844 183.597656 18.773438 184.417969 20 C 185.234375 21.226562 185.992188 22.488281 186.6875 23.789062 C 187.382812 25.085938 188.011719 26.417969 188.574219 27.777344 C 189.136719 29.140625 189.632812 30.527344 190.0625 31.9375 C 190.488281 33.347656 190.847656 34.777344 191.136719 36.222656 C 191.421875 37.667969 191.640625 39.121094 191.785156 40.589844 C 191.929688 42.054688 192 43.527344 192 45 L 192 147 C 192 148.472656 191.929688 149.945312 191.785156 151.410156 C 191.640625 152.878906 191.421875 154.332031 191.136719 155.777344 C 190.847656 157.222656 190.488281 158.652344 190.0625 160.0625 C 189.632812 161.472656 189.136719 162.859375 188.574219 164.222656 C 188.011719 165.582031 187.382812 166.914062 186.6875 168.210938 C 185.992188 169.511719 185.234375 170.773438 184.417969 172 C 183.597656 173.226562 182.71875 174.410156 181.785156 175.546875 C 180.851562 176.6875 179.863281 177.777344 178.820312 178.820312 C 177.777344 179.863281 176.6875 180.851562 175.546875 181.785156 C 174.410156 182.71875 173.226562 183.597656 172 184.417969 C 170.773438 185.234375 169.511719 185.992188 168.210938 186.6875 C 166.914062 187.382812 165.582031 188.011719 164.222656 188.574219 C 162.859375 189.136719 161.472656 189.632812 160.0625 190.0625 C 158.652344 190.488281 157.222656 190.847656 155.777344 191.136719 C 154.332031 191.421875 152.878906 191.640625 151.410156 191.785156 C 149.945312 191.929688 148.472656 192 147 192 L 45 192 C 43.527344 192 42.054688 191.929688 40.589844 191.785156 C 39.121094 191.640625 37.667969 191.421875 36.222656 191.136719 C 34.777344 190.847656 33.347656 190.488281 31.9375 190.0625 C 30.527344 189.632812 29.140625 189.136719 27.777344 188.574219 C 26.417969 188.011719 25.085938 187.382812 23.789062 186.6875 C 22.488281 185.992188 21.226562 185.234375 20 184.417969 C 18.773438 183.597656 17.589844 182.71875 16.453125 181.785156 C 15.3125 180.851562 14.222656 179.863281 13.179688 178.820312 C 12.136719 177.777344 11.148438 176.6875 10.214844 175.546875 C 9.28125 174.410156 8.402344 173.226562 7.582031 172 C 6.765625 170.773438 6.007812 169.511719 5.3125 168.210938 C 4.617188 166.914062 3.988281 165.582031 3.425781 164.222656 C 2.863281 162.859375 2.367188 161.472656 1.9375 160.0625 C 1.511719 158.652344 1.152344 157.222656 0.863281 155.777344 C 0.578125 154.332031 0.359375 152.878906 0.214844 151.410156 C 0.0703125 149.945312 0 148.472656 0 147 L 0 45 C 0 43.527344 0.0703125 42.054688 0.214844 40.589844 C 0.359375 39.121094 0.578125 37.667969 0.863281 36.222656 C 1.152344 34.777344 1.511719 33.347656 1.9375 31.9375 C 2.367188 30.527344 2.863281 29.140625 3.425781 27.777344 C 3.988281 26.417969 4.617188 25.085938 5.3125 23.789062 C 6.007812 22.488281 6.765625 21.226562 7.582031 20 C 8.402344 18.773438 9.28125 17.589844 10.214844 16.453125 C 11.148438 15.3125 12.136719 14.222656 13.179688 13.179688 C 14.222656 12.136719 15.3125 11.148438 16.453125 10.214844 C 17.589844 9.28125 18.773438 8.402344 20 7.582031 C 21.226562 6.765625 22.488281 6.007812 23.789062 5.3125 C 25.085938 4.617188 26.417969 3.988281 27.777344 3.425781 C 29.140625 2.863281 30.527344 2.367188 31.9375 1.9375 C 33.347656 1.511719 34.777344 1.152344 36.222656 0.863281 C 37.667969 0.578125 39.121094 0.359375 40.589844 0.214844 C 42.054688 0.0703125 43.527344 0 45 0 Z M 45 0 " fill-opacity="1" fill-rule="nonzero"/><path fill="#ffffff" d="M 42.457031 96.636719 L 42.398438 104.5 L 67.386719 104.5 L 67.386719 175.507812 L 85.0625 175.507812 L 85.0625 104.5 L 110.054688 104.5 L 110.054688 96.789062 C 110.054688 92.523438 109.964844 88.957031 109.839844 88.867188 C 109.75 88.742188 94.542969 88.683594 76.105469 88.714844 L 42.550781 88.804688 Z M 42.457031 96.636719 " fill-opacity="1" fill-rule="nonzero"/><path fill="#ffffff" d="M 154.925781 88.582031 C 159.800781 89.800781 163.519531 91.964844 166.933594 95.5 C 168.699219 97.390625 171.320312 100.832031 171.535156 101.65625 C 171.59375 101.898438 163.246094 107.507812 158.1875 110.644531 C 158.003906 110.769531 157.269531 109.976562 156.449219 108.757812 C 153.980469 105.160156 151.390625 103.605469 147.425781 103.332031 C 141.605469 102.933594 137.859375 105.984375 137.890625 111.074219 C 137.890625 112.566406 138.101562 113.449219 138.710938 114.667969 C 139.992188 117.320312 142.367188 118.90625 149.835938 122.136719 C 163.582031 128.046875 169.460938 131.949219 173.121094 137.496094 C 177.203125 143.683594 178.117188 153.554688 175.34375 160.902344 C 172.296875 168.886719 164.738281 174.308594 154.101562 176.109375 C 150.8125 176.6875 143.007812 176.597656 139.472656 175.957031 C 131.761719 174.585938 124.449219 170.777344 119.9375 165.777344 C 118.171875 163.828125 114.726562 158.738281 114.941406 158.371094 C 115.03125 158.25 115.824219 157.761719 116.707031 157.246094 C 117.5625 156.757812 120.792969 154.898438 123.839844 153.128906 L 129.355469 149.929688 L 130.511719 151.636719 C 132.128906 154.105469 135.664062 157.488281 137.796875 158.617188 C 143.921875 161.847656 152.335938 161.390625 156.480469 157.671875 C 158.246094 156.054688 158.976562 154.378906 158.976562 151.910156 C 158.976562 149.6875 158.703125 148.710938 157.546875 147.035156 C 156.050781 144.902344 153.003906 143.101562 144.347656 139.355469 C 134.445312 135.085938 130.179688 132.4375 126.277344 128.230469 C 124.023438 125.792969 121.886719 121.890625 121.003906 118.628906 C 120.273438 115.917969 120.089844 109.121094 120.667969 106.378906 C 122.710938 96.808594 129.933594 90.136719 140.355469 88.152344 C 143.742188 87.515625 151.601562 87.757812 154.925781 88.582031 Z M 154.925781 88.582031 " fill-opacity="1" fill-rule="nonzero"/></svg>